#!OML:ASF H:\Dans Jumps\Project 1\Capture day 1\Session 1\subject.ASF
:FULLY-SPECIFIED
:DEGREES
524
root 0.460188 17.7358 7.11701 8.23407 -1.54393 -1.36185
lowerback -2.15464 -0.171599 -0.389463
upperback 2.89611 -0.266256 1.40293
thorax 4.20044 -0.168908 1.65013
lowerneck -11.2441 0.591743 -1.71245
upperneck 38.1923 0.981836 0.942706
head 15.2067 0.288457 0.857825
rclavicle -3.57812e-015 -4.96962e-015
rhumerus -26.6171 -17.7249 -78.7889
rradius 21.8064
rwrist 38.7567
rhand -15.0259 -25.5322
rfingers 7.12502
rthumb 11.1398 -55.2165
lclavicle -3.57812e-015 -4.96962e-015
lhumerus -22.8734 4.15331 85.994
lradius 15.6243
lwrist 0.775452
lhand -25.1479 -5.16098
lfingers 7.12502
lthumb 1.36869 24.8144
rfemur -13.1896 -1.24473 19.2318
rtibia 19.4748
rfoot -12.7385 -2.16325
rtoes 11.2874
lfemur -12.9605 6.66672 -17.9972
ltibia 17.4511
lfoot -9.88336 4.0023
ltoes 1.24183
525
root 0.460516 17.7358 7.11493 8.22565 -1.54371 -1.3565
lowerback -2.16332 -0.174717 -0.38819
upperback 2.89931 -0.270602 1.40457
thorax 4.20883 -0.171117 1.65086
lowerneck -11.265 0.600493 -1.69759
upperneck 38.1922 0.999932 0.920145
head 15.2116 0.295198 0.848639
rclavicle 3.03147e-015 1.98785e-016
rhumerus -26.5989 -17.694 -78.7868
rradius 21.8132
rwrist 38.7199
rhand -15.0289 -25.5166
rfingers 7.12502
rthumb 11.1369 -55.201
lclavicle 3.03147e-015 1.98785e-016
lhumerus -22.8548 4.14479 85.9745
lradius 15.6094
lwrist 0.77841
lhand -25.1181 -5.07339
lfingers 7.12502
lthumb 1.39747 24.9018
rfemur -13.1933 -1.23987 19.225
rtibia 19.4827
rfoot -12.7353 -2.16953
rtoes 11.2713
lfemur -12.9571 6.66651 -18.0043
ltibia 17.4459
lfoot -9.87544 3.99931
ltoes 1.24973
526
root 0.460826 17.7358 7.11279 8.21763 -1.54157 -1.35146
lowerback -2.17025 -0.178915 -0.388353
upperback 2.90254 -0.276389 1.40792
thorax 4.21633 -0.174115 1.65408
lowerneck -11.2904 0.606653 -1.68778
upperneck 38.1974 1.01418 0.901341
head 15.2202 0.300019 0.841439
rclavicle -4.96962e-017 -1.92821e-014
rhumerus -26.5765 -17.6674 -78.7836
rradius 21.8171
rwrist 38.6906
rhand -15.0381 -25.5034
rfingers 7.12502
rthumb 11.128 -55.1883
lclavicle -4.96962e-017 -1.92821e-014
lhumerus -22.8395 4.13586 85.9577
lradius 15.5974
lwrist 0.778737
lhand -25.104 -5.02038
lfingers 7.12502
lthumb 1.41115 24.9547
rfemur -13.1974 -1.2355 19.2186
rtibia 19.4914
rfoot -12.7319 -2.17756
rtoes 11.2567
lfemur -12.9541 6.66885 -18.0111
ltibia 17.4394
lfoot -9.86662 3.99187
ltoes 1.26198
527
root 0.46105 17.7358 7.11063 8.2095 -1.53966 -1.344
lowerback -2.17492 -0.182563 -0.392907
upperback 2.90273 -0.281238 1.41185
thorax 4.2194 -0.176756 1.66042
lowerneck -11.3115 0.609652 -1.68203
upperneck 38.2074 1.02354 0.885628
head 15.2302 0.302567 0.835526
rclavicle 3.42904e-015 7.15625e-015
rhumerus -26.5585 -17.6481 -78.7756
rradius 21.8182
rwrist 38.6685
rhand -15.0555 -25.4887
rfingers 7.12502
rthumb 11.1112 -55.1745
lclavicle 3.42904e-015 7.15625e-015
lhumerus -22.8369 4.12517 85.9453
lradius 15.5864
lwrist 0.784456
lhand -25.1233 -5.04188
lfingers 7.12502
lthumb 1.39247 24.9333
rfemur -13.2015 -1.22856 19.2096
rtibia 19.501
rfoot -12.7293 -2.18816
rtoes 11.2431
lfemur -12.9504 6.67357 -18.0202
ltibia 17.4313
lfoot -9.85862 3.9808
ltoes 1.28721
528
root 0.461254 17.7358 7.10846 8.19961 -1.53631 -1.33589
lowerback -2.17563 -0.186107 -0.397993
upperback 2.90001 -0.285882 1.41581
thorax 4.21719 -0.179269 1.66709
lowerneck -11.3302 0.608853 -1.67932
upperneck 38.2244 1.02679 0.873052
head 15.2432 0.302448 0.830584
rclavicle 6.4605e-015 -1.96797e-014
rhumerus -26.5439 -17.6411 -78.7632
rradius 21.8133
rwrist 38.66
rhand -15.0759 -25.4798
rfingers 7.12502
rthumb 11.0916 -55.1667
lclavicle 6.4605e-015 -1.96797e-014
lhumerus -22.8456 4.10764 85.9373
lradius 15.5788
lwrist 0.808496
lhand -25.1672 -5.10789
lfingers 7.12502
lthumb 1.35013 24.8676
rfemur -13.2031 -1.22344 19.2
rtibia 19.5104
rfoot -12.7276 -2.19836
rtoes 11.2323
lfemur -12.9448 6.67844 -18.0296
ltibia 17.4234
lfoot -9.85092 3.96793
ltoes 1.31216
529
root 0.461323 17.7359 7.10615 8.18969 -1.53041 -1.32723
lowerback -2.17381 -0.189224 -0.404492
upperback 2.89452 -0.289854 1.41966
thorax 4.21064 -0.181453 1.67447
lowerneck -11.3414 0.603864 -1.68213
upperneck 38.2423 1.02218 0.868157
head 15.2549 0.299256 0.828593
rclavicle -3.57812e-015 1.11319e-014
rhumerus -26.5336 -17.6433 -78.7478
rradius 21.8056
rwrist 38.6597
rhand -15.1015 -25.4754
rfingers 7.12502
rthumb 11.0668 -55.1636
lclavicle -3.57812e-015 1.11319e-014
lhumerus -22.8623 4.0917 85.9303
lradius 15.574
lwrist 0.827785
lhand -25.215 -5.19328
lfingers 7.12502
lthumb 1.30388 24.7825
rfemur -13.2042 -1.21601 19.1904
rtibia 19.5187
rfoot -12.7261 -2.21389
rtoes 11.2227
lfemur -12.9408 6.68045 -18.0385
ltibia 17.4162
lfoot -9.84287 3.95391
ltoes 1.34332
530
root 0.461324 17.7359 7.1037 8.17968 -1.52205 -1.31877
lowerback -2.16995 -0.192506 -0.410428
upperback 2.88664 -0.294035 1.42348
thorax 4.20047 -0.183691 1.68149
lowerneck -11.3483 0.597606 -1.68826
upperneck 38.2625 1.01471 0.868011
head 15.2667 0.295003 0.828745
rclavicle 4.87022e-015 -5.36719e-015
rhumerus -26.5258 -17.6535 -78.7298
rradius 21.7943
rwrist 38.6691
rhand -15.1243 -25.472
rfingers 7.12502
rthumb 11.0449 -55.1614
lclavicle 4.87022e-015 -5.36719e-015
lhumerus -22.8836 4.07589 85.9248
lradius 15.5719
lwrist 0.849737
lhand -25.2508 -5.27015
lfingers 7.12502
lthumb 1.26937 24.7058
rfemur -13.2044 -1.20835 19.1814
rtibia 19.525
rfoot -12.724 -2.23129
rtoes 11.2222
lfemur -12.9386 6.67862 -18.0466
ltibia 17.4114
lfoot -9.83477 3.94088
ltoes 1.36965
531
root 0.461242 17.736 7.10119 8.1702 -1.5123 -1.31276
lowerback -2.16694 -0.19494 -0.413055
upperback 2.87761 -0.297214 1.42735
thorax 4.18952 -0.185315 1.68677
lowerneck -11.3493 0.58981 -1.69597
upperneck 38.2808 1.00373 0.871806
head 15.2762 0.289614 0.830232
rclavicle 4.87022e-015 1.98785e-015
rhumerus -26.5216 -17.6658 -78.7111
rradius 21.784
rwrist 38.6783
rhand -15.1368 -25.4715
rfingers 7.12502
rthumb 11.0328 -55.1616
lclavicle 4.87022e-015 1.98785e-015
lhumerus -22.909 4.06055 85.9193
lradius 15.5743
lwrist 0.864133
lhand -25.266 -5.31673
lfingers 7.12502
lthumb 1.25469 24.6593
rfemur -13.2046 -1.20116 19.1756
rtibia 19.5294
rfoot -12.7211 -2.24962
rtoes 11.22
lfemur -12.9386 6.67505 -18.0514
ltibia 17.4088
lfoot -9.82711 3.92882
ltoes 1.38349
